<svg xmlns="http://www.w3.org/2000/svg" xmlns:xlink="http://www.w3.org/1999/xlink" width="250" zoomAndPan="magnify" viewBox="0 0 187.5 74.999997" height="100" preserveAspectRatio="xMidYMid meet" version="1.0"><defs><g/><clipPath id="8e0ab6d5ce"><path d="M 0 0.101562 L 187 0.101562 L 187 74.898438 L 0 74.898438 Z M 0 0.101562 " clip-rule="nonzero"/></clipPath></defs><g clip-path="url(#8e0ab6d5ce)"><path fill="#ffffff" d="M 0 0.101562 L 187 0.101562 L 187 74.898438 L 0 74.898438 Z M 0 0.101562 " fill-opacity="1" fill-rule="nonzero"/><path fill="#ffffff" d="M 0 0.101562 L 187 0.101562 L 187 74.898438 L 0 74.898438 Z M 0 0.101562 " fill-opacity="1" fill-rule="nonzero"/></g><g fill="#1e3a3a" fill-opacity="1"><g transform="translate(18.548543, 54.976634)"><g><path d="M 11.21875 0.203125 C 10.863281 0.203125 10.375 0.179688 9.75 0.140625 C 9.132812 0.109375 8.546875 0.0625 7.984375 0 C 7.566406 -0.0625 7.191406 -0.207031 6.859375 -0.4375 C 6.535156 -0.664062 6.289062 -0.945312 6.125 -1.28125 C 5.40625 -3.238281 4.6875 -5.539062 3.96875 -8.1875 C 3.25 -10.832031 2.609375 -13.625 2.046875 -16.5625 C 1.492188 -19.507812 1.085938 -22.40625 0.828125 -25.25 C 0.734375 -26.03125 1.128906 -26.503906 2.015625 -26.671875 C 2.503906 -26.765625 3 -26.816406 3.5 -26.828125 C 4.007812 -26.847656 4.410156 -26.859375 4.703125 -26.859375 C 4.960938 -26.859375 5.335938 -26.84375 5.828125 -26.8125 C 6.316406 -26.78125 6.757812 -26.734375 7.15625 -26.671875 C 8.101562 -26.503906 8.59375 -26.046875 8.625 -25.296875 C 8.65625 -24.410156 8.726562 -23.394531 8.84375 -22.25 C 8.957031 -21.101562 9.097656 -19.929688 9.265625 -18.734375 C 9.429688 -17.546875 9.609375 -16.4375 9.796875 -15.40625 C 9.992188 -14.382812 10.175781 -13.53125 10.34375 -12.84375 C 10.601562 -11.800781 10.847656 -10.941406 11.078125 -10.265625 C 11.304688 -9.597656 11.597656 -9.265625 11.953125 -9.265625 C 12.347656 -9.265625 12.660156 -9.585938 12.890625 -10.234375 C 13.117188 -10.890625 13.378906 -11.84375 13.671875 -13.09375 C 13.867188 -13.90625 14.113281 -14.898438 14.40625 -16.078125 C 14.707031 -17.253906 15.019531 -18.445312 15.34375 -19.65625 C 15.664062 -20.863281 15.972656 -21.894531 16.265625 -22.75 C 16.722656 -24.082031 17.222656 -25.039062 17.765625 -25.625 C 18.304688 -26.21875 19.035156 -26.515625 19.953125 -26.515625 C 20.867188 -26.515625 21.609375 -26.195312 22.171875 -25.5625 C 22.742188 -24.925781 23.242188 -23.988281 23.671875 -22.75 C 23.960938 -21.894531 24.265625 -20.863281 24.578125 -19.65625 C 24.890625 -18.445312 25.191406 -17.253906 25.484375 -16.078125 C 25.773438 -14.898438 26.019531 -13.90625 26.21875 -13.09375 C 26.582031 -11.84375 26.867188 -10.890625 27.078125 -10.234375 C 27.296875 -9.585938 27.597656 -9.265625 27.984375 -9.265625 C 28.347656 -9.265625 28.648438 -9.597656 28.890625 -10.265625 C 29.140625 -10.941406 29.378906 -11.800781 29.609375 -12.84375 C 29.804688 -13.757812 30.023438 -14.96875 30.265625 -16.46875 C 30.515625 -17.96875 30.742188 -19.519531 30.953125 -21.125 C 31.160156 -22.726562 31.285156 -24.117188 31.328125 -25.296875 C 31.359375 -26.046875 31.847656 -26.503906 32.796875 -26.671875 C 33.148438 -26.734375 33.570312 -26.78125 34.0625 -26.8125 C 34.550781 -26.84375 34.925781 -26.859375 35.1875 -26.859375 C 35.488281 -26.859375 35.890625 -26.847656 36.390625 -26.828125 C 36.898438 -26.816406 37.414062 -26.765625 37.9375 -26.671875 C 38.300781 -26.597656 38.601562 -26.4375 38.84375 -26.1875 C 39.09375 -25.945312 39.179688 -25.632812 39.109375 -25.25 C 38.847656 -22.46875 38.421875 -19.585938 37.828125 -16.609375 C 37.242188 -13.640625 36.59375 -10.820312 35.875 -8.15625 C 35.15625 -5.5 34.472656 -3.207031 33.828125 -1.28125 C 33.691406 -0.945312 33.441406 -0.664062 33.078125 -0.4375 C 32.722656 -0.207031 32.332031 -0.0625 31.90625 0 C 31.414062 0.0625 30.851562 0.109375 30.21875 0.140625 C 29.582031 0.179688 29.082031 0.203125 28.71875 0.203125 C 28.289062 0.203125 27.820312 0.191406 27.3125 0.171875 C 26.8125 0.148438 26.238281 0.09375 25.59375 0 C 25.09375 -0.0625 24.671875 -0.195312 24.328125 -0.40625 C 23.992188 -0.625 23.757812 -0.929688 23.625 -1.328125 C 23.457031 -1.910156 23.269531 -2.789062 23.0625 -3.96875 C 22.851562 -5.144531 22.625 -6.425781 22.375 -7.8125 C 22.132812 -9.207031 21.875 -10.539062 21.59375 -11.8125 C 21.3125 -13.082031 21.03125 -14.125 20.75 -14.9375 C 20.476562 -15.757812 20.210938 -16.171875 19.953125 -16.171875 C 19.691406 -16.171875 19.421875 -15.753906 19.140625 -14.921875 C 18.859375 -14.085938 18.578125 -13.023438 18.296875 -11.734375 C 18.023438 -10.441406 17.765625 -9.09375 17.515625 -7.6875 C 17.273438 -6.289062 17.046875 -5.019531 16.828125 -3.875 C 16.617188 -2.726562 16.453125 -1.878906 16.328125 -1.328125 C 16.066406 -0.609375 15.394531 -0.164062 14.3125 0 C 13.6875 0.0625 13.101562 0.109375 12.5625 0.140625 C 12.03125 0.179688 11.582031 0.203125 11.21875 0.203125 Z M 11.21875 0.203125 "/></g></g></g><g fill="#1e3a3a" fill-opacity="1"><g transform="translate(57.464963, 54.976634)"><g><path d="M 15.140625 0.390625 C 12.265625 0.390625 9.753906 -0.15625 7.609375 -1.25 C 5.472656 -2.34375 3.816406 -3.9375 2.640625 -6.03125 C 1.460938 -8.125 0.875 -10.65625 0.875 -13.625 C 0.875 -16.5 1.4375 -18.929688 2.5625 -20.921875 C 3.695312 -22.921875 5.242188 -24.441406 7.203125 -25.484375 C 9.160156 -26.535156 11.382812 -27.0625 13.875 -27.0625 C 17.332031 -27.0625 20.128906 -26.285156 22.265625 -24.734375 C 24.410156 -23.179688 25.484375 -20.898438 25.484375 -17.890625 C 25.484375 -16.285156 25.050781 -14.867188 24.1875 -13.640625 C 23.320312 -12.421875 22.175781 -11.472656 20.75 -10.796875 C 19.332031 -10.128906 17.804688 -9.796875 16.171875 -9.796875 C 14.835938 -9.796875 13.539062 -9.910156 12.28125 -10.140625 C 11.019531 -10.367188 9.914062 -10.75 8.96875 -11.28125 C 8.476562 -11.601562 8.117188 -11.625 7.890625 -11.34375 C 7.660156 -11.070312 7.707031 -10.707031 8.03125 -10.25 C 8.425781 -9.332031 9.054688 -8.515625 9.921875 -7.796875 C 10.785156 -7.078125 11.773438 -6.507812 12.890625 -6.09375 C 14.003906 -5.6875 15.113281 -5.484375 16.21875 -5.484375 C 17.5 -5.484375 18.859375 -5.757812 20.296875 -6.3125 C 21.734375 -6.875 22.910156 -7.582031 23.828125 -8.4375 C 24.179688 -8.882812 24.5625 -9.035156 24.96875 -8.890625 C 25.382812 -8.742188 25.609375 -8.347656 25.640625 -7.703125 C 25.703125 -6.972656 25.738281 -6.234375 25.75 -5.484375 C 25.769531 -4.734375 25.796875 -4 25.828125 -3.28125 C 25.828125 -2.664062 25.613281 -2.222656 25.1875 -1.953125 C 23.976562 -1.140625 22.4375 -0.546875 20.5625 -0.171875 C 18.6875 0.203125 16.878906 0.390625 15.140625 0.390625 Z M 14.265625 -13.578125 C 15.671875 -13.578125 16.78125 -13.925781 17.59375 -14.625 C 18.414062 -15.332031 18.828125 -16.289062 18.828125 -17.5 C 18.828125 -18.769531 18.445312 -19.765625 17.6875 -20.484375 C 16.9375 -21.203125 15.695312 -21.5625 13.96875 -21.5625 C 12.988281 -21.5625 12.023438 -21.359375 11.078125 -20.953125 C 10.128906 -20.546875 9.351562 -19.96875 8.75 -19.21875 C 8.144531 -18.46875 7.84375 -17.550781 7.84375 -16.46875 C 7.84375 -15.8125 8.203125 -15.265625 8.921875 -14.828125 C 9.640625 -14.390625 10.492188 -14.070312 11.484375 -13.875 C 12.484375 -13.675781 13.410156 -13.578125 14.265625 -13.578125 Z M 14.265625 -13.578125 "/></g></g></g><g fill="#0bc178" fill-opacity="1"><g transform="translate(85.035235, 55.16496)"><g><path d="M 4.90625 0.203125 C 4.644531 0.203125 4.234375 0.191406 3.671875 0.171875 C 3.117188 0.148438 2.628906 0.09375 2.203125 0 C 1.941406 -0.0625 1.703125 -0.210938 1.484375 -0.453125 C 1.273438 -0.703125 1.171875 -1.023438 1.171875 -1.421875 C 1.171875 -4.429688 1.175781 -7.03125 1.1875 -9.21875 C 1.207031 -11.40625 1.242188 -13.378906 1.296875 -15.140625 C 1.347656 -16.910156 1.414062 -18.609375 1.5 -20.234375 C 1.582031 -21.867188 1.6875 -23.601562 1.8125 -25.4375 C 1.90625 -26.15625 2.265625 -26.566406 2.890625 -26.671875 C 3.515625 -26.796875 4.347656 -26.859375 5.390625 -26.859375 C 5.816406 -26.859375 6.273438 -26.84375 6.765625 -26.8125 C 7.253906 -26.78125 7.660156 -26.734375 7.984375 -26.671875 C 8.316406 -26.597656 8.585938 -26.460938 8.796875 -26.265625 C 9.003906 -26.078125 9.078125 -25.800781 9.015625 -25.4375 C 8.921875 -24.882812 8.820312 -24.382812 8.71875 -23.9375 C 8.625 -23.5 8.578125 -23.101562 8.578125 -22.75 C 8.578125 -22.1875 8.691406 -21.863281 8.921875 -21.78125 C 9.148438 -21.707031 9.378906 -21.929688 9.609375 -22.453125 C 10.296875 -23.890625 11.265625 -25.015625 12.515625 -25.828125 C 13.773438 -26.648438 15.09375 -27.0625 16.46875 -27.0625 C 17.9375 -27.0625 19.273438 -26.722656 20.484375 -26.046875 C 21.691406 -25.378906 22.640625 -24.375 23.328125 -23.03125 C 23.953125 -21.5625 24.609375 -21.546875 25.296875 -22.984375 C 26.015625 -24.222656 27 -25.210938 28.25 -25.953125 C 29.507812 -26.691406 30.972656 -27.0625 32.640625 -27.0625 C 34.273438 -27.0625 35.78125 -26.585938 37.15625 -25.640625 C 38.53125 -24.691406 39.648438 -23.289062 40.515625 -21.4375 C 41.378906 -19.59375 41.859375 -17.332031 41.953125 -14.65625 C 42.023438 -12.851562 42.109375 -10.804688 42.203125 -8.515625 C 42.296875 -6.234375 42.34375 -3.867188 42.34375 -1.421875 C 42.34375 -0.992188 42.238281 -0.664062 42.03125 -0.4375 C 41.820312 -0.207031 41.550781 -0.0625 41.21875 0 C 40.789062 0.0625 40.359375 0.109375 39.921875 0.140625 C 39.484375 0.179688 39.132812 0.203125 38.875 0.203125 C 38.539062 0.203125 38.054688 0.191406 37.421875 0.171875 C 36.785156 0.148438 36.238281 0.09375 35.78125 0 C 35.457031 -0.0625 35.171875 -0.207031 34.921875 -0.4375 C 34.679688 -0.664062 34.578125 -0.976562 34.609375 -1.375 C 34.703125 -2.582031 34.773438 -3.925781 34.828125 -5.40625 C 34.878906 -6.894531 34.910156 -8.332031 34.921875 -9.71875 C 34.941406 -11.113281 34.9375 -12.238281 34.90625 -13.09375 C 34.863281 -15.34375 34.398438 -17.113281 33.515625 -18.40625 C 32.640625 -19.695312 31.484375 -20.34375 30.046875 -20.34375 C 28.773438 -20.34375 27.671875 -19.671875 26.734375 -18.328125 C 25.804688 -16.992188 25.34375 -15.113281 25.34375 -12.6875 C 25.34375 -11.019531 25.363281 -9.179688 25.40625 -7.171875 C 25.457031 -5.171875 25.550781 -3.253906 25.6875 -1.421875 C 25.75 -0.992188 25.65625 -0.664062 25.40625 -0.4375 C 25.164062 -0.207031 24.863281 -0.0625 24.5 0 C 24.113281 0.0625 23.691406 0.109375 23.234375 0.140625 C 22.773438 0.179688 22.398438 0.203125 22.109375 0.203125 C 21.773438 0.203125 21.289062 0.191406 20.65625 0.171875 C 20.019531 0.148438 19.457031 0.09375 18.96875 0 C 18.675781 -0.0625 18.40625 -0.207031 18.15625 -0.4375 C 17.914062 -0.664062 17.8125 -0.976562 17.84375 -1.375 C 17.90625 -2.644531 17.960938 -3.984375 18.015625 -5.390625 C 18.066406 -6.796875 18.097656 -8.175781 18.109375 -9.53125 C 18.128906 -10.882812 18.125 -12.070312 18.09375 -13.09375 C 18.050781 -15.34375 17.585938 -17.113281 16.703125 -18.40625 C 15.828125 -19.695312 14.671875 -20.34375 13.234375 -20.34375 C 11.929688 -20.34375 10.828125 -19.65625 9.921875 -18.28125 C 9.023438 -16.90625 8.546875 -15.007812 8.484375 -12.59375 C 8.410156 -10.769531 8.382812 -8.929688 8.40625 -7.078125 C 8.425781 -5.234375 8.484375 -3.332031 8.578125 -1.375 C 8.609375 -0.976562 8.507812 -0.664062 8.28125 -0.4375 C 8.050781 -0.207031 7.789062 -0.0625 7.5 0 C 7.101562 0.0625 6.632812 0.109375 6.09375 0.140625 C 5.5625 0.179688 5.164062 0.203125 4.90625 0.203125 Z M 4.90625 0.203125 "/></g></g></g><g fill="#0bc178" fill-opacity="1"><g transform="translate(128.308669, 55.16496)"><g><path d="M 15.140625 0.390625 C 12.265625 0.390625 9.753906 -0.15625 7.609375 -1.25 C 5.472656 -2.34375 3.816406 -3.9375 2.640625 -6.03125 C 1.460938 -8.125 0.875 -10.65625 0.875 -13.625 C 0.875 -16.5 1.4375 -18.929688 2.5625 -20.921875 C 3.695312 -22.921875 5.242188 -24.441406 7.203125 -25.484375 C 9.160156 -26.535156 11.382812 -27.0625 13.875 -27.0625 C 17.332031 -27.0625 20.128906 -26.285156 22.265625 -24.734375 C 24.410156 -23.179688 25.484375 -20.898438 25.484375 -17.890625 C 25.484375 -16.285156 25.050781 -14.867188 24.1875 -13.640625 C 23.320312 -12.421875 22.175781 -11.472656 20.75 -10.796875 C 19.332031 -10.128906 17.804688 -9.796875 16.171875 -9.796875 C 14.835938 -9.796875 13.539062 -9.910156 12.28125 -10.140625 C 11.019531 -10.367188 9.914062 -10.75 8.96875 -11.28125 C 8.476562 -11.601562 8.117188 -11.625 7.890625 -11.34375 C 7.660156 -11.070312 7.707031 -10.707031 8.03125 -10.25 C 8.425781 -9.332031 9.054688 -8.515625 9.921875 -7.796875 C 10.785156 -7.078125 11.773438 -6.507812 12.890625 -6.09375 C 14.003906 -5.6875 15.113281 -5.484375 16.21875 -5.484375 C 17.5 -5.484375 18.859375 -5.757812 20.296875 -6.3125 C 21.734375 -6.875 22.910156 -7.582031 23.828125 -8.4375 C 24.179688 -8.882812 24.5625 -9.035156 24.96875 -8.890625 C 25.382812 -8.742188 25.609375 -8.347656 25.640625 -7.703125 C 25.703125 -6.972656 25.738281 -6.234375 25.75 -5.484375 C 25.769531 -4.734375 25.796875 -4 25.828125 -3.28125 C 25.828125 -2.664062 25.613281 -2.222656 25.1875 -1.953125 C 23.976562 -1.140625 22.4375 -0.546875 20.5625 -0.171875 C 18.6875 0.203125 16.878906 0.390625 15.140625 0.390625 Z M 14.265625 -13.578125 C 15.671875 -13.578125 16.78125 -13.925781 17.59375 -14.625 C 18.414062 -15.332031 18.828125 -16.289062 18.828125 -17.5 C 18.828125 -18.769531 18.445312 -19.765625 17.6875 -20.484375 C 16.9375 -21.203125 15.695312 -21.5625 13.96875 -21.5625 C 12.988281 -21.5625 12.023438 -21.359375 11.078125 -20.953125 C 10.128906 -20.546875 9.351562 -19.96875 8.75 -19.21875 C 8.144531 -18.46875 7.84375 -17.550781 7.84375 -16.46875 C 7.84375 -15.8125 8.203125 -15.265625 8.921875 -14.828125 C 9.640625 -14.390625 10.492188 -14.070312 11.484375 -13.875 C 12.484375 -13.675781 13.410156 -13.578125 14.265625 -13.578125 Z M 14.265625 -13.578125 "/></g></g></g><g fill="#0bc178" fill-opacity="1"><g transform="translate(155.066664, 55.16496)"><g><path d="M 5.296875 -29.21875 C 4.085938 -29.21875 3.097656 -29.539062 2.328125 -30.1875 C 1.554688 -30.84375 1.171875 -31.675781 1.171875 -32.6875 C 1.171875 -33.738281 1.554688 -34.585938 2.328125 -35.234375 C 3.097656 -35.890625 4.085938 -36.21875 5.296875 -36.21875 C 6.535156 -36.21875 7.535156 -35.890625 8.296875 -35.234375 C 9.066406 -34.585938 9.453125 -33.738281 9.453125 -32.6875 C 9.453125 -31.675781 9.066406 -30.84375 8.296875 -30.1875 C 7.535156 -29.539062 6.535156 -29.21875 5.296875 -29.21875 Z M 5.390625 0.203125 C 5.128906 0.203125 4.703125 0.191406 4.109375 0.171875 C 3.523438 0.148438 3.019531 0.09375 2.59375 0 C 2.300781 -0.0625 2.046875 -0.210938 1.828125 -0.453125 C 1.617188 -0.703125 1.515625 -1.023438 1.515625 -1.421875 C 1.515625 -4.265625 1.519531 -6.769531 1.53125 -8.9375 C 1.550781 -11.113281 1.578125 -13.109375 1.609375 -14.921875 C 1.648438 -16.734375 1.703125 -18.476562 1.765625 -20.15625 C 1.828125 -21.84375 1.925781 -23.601562 2.0625 -25.4375 C 2.09375 -25.863281 2.1875 -26.164062 2.34375 -26.34375 C 2.507812 -26.519531 2.757812 -26.628906 3.09375 -26.671875 C 3.445312 -26.734375 3.859375 -26.78125 4.328125 -26.8125 C 4.804688 -26.84375 5.175781 -26.859375 5.4375 -26.859375 C 5.664062 -26.859375 5.992188 -26.84375 6.421875 -26.8125 C 6.847656 -26.78125 7.222656 -26.734375 7.546875 -26.671875 C 7.867188 -26.597656 8.113281 -26.476562 8.28125 -26.3125 C 8.445312 -26.15625 8.546875 -25.863281 8.578125 -25.4375 C 8.710938 -23.601562 8.8125 -21.84375 8.875 -20.15625 C 8.9375 -18.476562 8.984375 -16.734375 9.015625 -14.921875 C 9.046875 -13.109375 9.066406 -11.109375 9.078125 -8.921875 C 9.097656 -6.734375 9.109375 -4.21875 9.109375 -1.375 C 9.109375 -0.976562 9.003906 -0.664062 8.796875 -0.4375 C 8.585938 -0.207031 8.332031 -0.0625 8.03125 0 C 7.613281 0.0625 7.132812 0.109375 6.59375 0.140625 C 6.050781 0.179688 5.648438 0.203125 5.390625 0.203125 Z M 5.390625 0.203125 "/></g></g></g></svg>